<svg width="22" height="22" viewBox="0 0 22 22" fill="none" xmlns="http://www.w3.org/2000/svg">
<g clip-path="url(#clip0_0_80)">
<path d="M11 22C17.0751 22 22 17.0751 22 11C22 4.92487 17.0751 0 11 0C4.92487 0 0 4.92487 0 11C0 17.0751 4.92487 22 11 22Z" fill="white"/>
<path d="M11 0C4.9251 0 0 4.9251 0 11C0 15.6626 2.89712 19.6461 6.9893 21.2486C6.88971 20.3794 6.80823 19.0395 7.02551 18.0889C7.22469 17.2288 8.31111 12.6206 8.31111 12.6206C8.31111 12.6206 7.98519 11.9597 7.98519 10.9909C7.98519 9.46091 8.87243 8.32017 9.97695 8.32017C10.9185 8.32017 11.3712 9.02634 11.3712 9.86831C11.3712 10.8099 10.7737 12.2222 10.4568 13.535C10.1942 14.6305 11.0091 15.5268 12.0864 15.5268C14.042 15.5268 15.5449 13.4626 15.5449 10.493C15.5449 7.85844 13.6527 6.02058 10.9457 6.02058C7.81317 6.02058 5.97531 8.36543 5.97531 10.7918C5.97531 11.7333 6.33745 12.7473 6.79012 13.2996C6.88066 13.4082 6.88971 13.5078 6.86255 13.6165C6.78107 13.9605 6.59095 14.7119 6.55473 14.8658C6.50947 15.065 6.39177 15.1103 6.18354 15.0107C4.80741 14.3679 3.94733 12.3671 3.94733 10.7465C3.94733 7.27901 6.4642 4.09218 11.2173 4.09218C15.0288 4.09218 17.9984 6.80823 17.9984 10.4477C17.9984 14.2412 15.6082 17.2922 12.2947 17.2922C11.1811 17.2922 10.1309 16.7128 9.77778 16.0247C9.77778 16.0247 9.22552 18.1251 9.08971 18.6412C8.84527 19.6008 8.17531 20.7959 7.72263 21.5292C8.75473 21.8461 9.84115 22.0181 10.9819 22.0181C17.0568 22.0181 21.9819 17.093 21.9819 11.0181C22 4.9251 17.0749 0 11 0Z" fill="#E60019"/>
</g>
<defs>
<clipPath id="clip0_0_80">
<rect width="22" height="22" fill="white"/>
</clipPath>
</defs>
</svg>
